<svg version="1.1" xmlns="http://www.w3.org/2000/svg" width="420" height="420">
<path d="M0 0 C23.43 0 46.86 0 71 0 C71 23.1 71 46.2 71 70 C94.1 70 117.2 70 141 70 C141 116.2 141 162.4 141 210 C164.1 210 187.2 210 211 210 C211 256.53 211 303.06 211 351 C187.57 351 164.14 351 140 351 C140 304.8 140 258.6 140 211 C71.03 211 2.06 211 -69 211 C-69 257.2 -69 303.4 -69 351 C-92.43 351 -115.86 351 -140 351 C-140 304.47 -140 257.94 -140 210 C-116.9 210 -93.8 210 -70 210 C-70 163.8 -70 117.6 -70 70 C-46.9 70 -23.8 70 0 70 C0 46.9 0 23.8 0 0 Z " fill="currentColor" transform="translate(175,35)"/>
</svg>
