<svg width="35" height="35" viewBox="0 -1 35 35" fill="none" xmlns="http://www.w3.org/2000/svg">
<g filter="url(#filter0_d_1981_8891)">
<rect x="5.98315" y="3" width="22.2966" height="22.2966" rx="11.1483" fill="#1769FF"/>
</g>
<path d="M14.6447 10.2847C15.0103 10.2847 15.3437 10.3171 15.6448 10.3821C15.9459 10.447 16.204 10.5535 16.4191 10.7013C16.6342 10.8492 16.8009 11.0458 16.9192 11.2912C17.0375 11.5365 17.0966 11.8395 17.0966 12.2002C17.0966 12.5899 17.0088 12.9145 16.8332 13.1742C16.6574 13.4339 16.3976 13.6467 16.0535 13.8127C16.5267 13.9498 16.8797 14.1898 17.1128 14.5323C17.3456 14.8751 17.4624 15.2882 17.4624 15.7715C17.4624 16.1611 17.3871 16.4985 17.2365 16.7835C17.086 17.0686 16.8833 17.3012 16.629 17.4813C16.3744 17.6618 16.084 17.7952 15.7579 17.8819C15.4297 17.9687 15.0917 18.0123 14.7523 18.0117H11.0312V10.2847H14.6447ZM14.4296 13.4124C14.7307 13.4124 14.978 13.3402 15.1717 13.1959C15.3652 13.0516 15.462 12.8171 15.462 12.4924C15.462 12.3122 15.4298 12.1642 15.3652 12.0487C15.3007 11.9334 15.2147 11.843 15.1071 11.7782C14.9996 11.7132 14.8759 11.6683 14.7361 11.6429C14.5923 11.6173 14.4466 11.6047 14.3006 11.605H12.7197V13.4124H14.4296V13.4124ZM14.5264 16.6913C14.6912 16.6913 14.849 16.6751 14.9995 16.6426C15.15 16.6101 15.2826 16.556 15.3975 16.4802C15.512 16.4046 15.6035 16.3017 15.6717 16.1718C15.7397 16.042 15.7738 15.8761 15.7738 15.6739C15.7738 15.2773 15.6626 14.9941 15.4404 14.8245C15.2181 14.655 14.9242 14.5701 14.5586 14.5701H12.7197V16.6912L14.5264 16.6913ZM19.5872 16.529C19.8166 16.7529 20.1464 16.8645 20.5766 16.8645C20.8848 16.8645 21.1501 16.7871 21.3723 16.6319C21.5946 16.477 21.7308 16.3127 21.781 16.1395H23.1253C22.9103 16.8104 22.5803 17.2903 22.1359 17.5788C21.6913 17.8674 21.1535 18.0117 20.5227 18.0117C20.0854 18.0117 19.691 17.9413 19.3397 17.8006C18.9883 17.66 18.6908 17.4597 18.4472 17.2C18.2034 16.9403 18.0152 16.6303 17.8825 16.2694C17.7498 15.9087 17.6836 15.5118 17.6836 15.0789C17.6836 14.6606 17.7516 14.271 17.888 13.9102C18.024 13.5496 18.2175 13.2375 18.4687 12.9741C18.7195 12.7108 19.0189 12.5034 19.3667 12.3518C19.7144 12.2003 20.0997 12.1246 20.5228 12.1246C20.996 12.1246 21.4082 12.2166 21.7596 12.4005C22.1108 12.5845 22.3994 12.8318 22.6253 13.1418C22.8511 13.4521 23.0141 13.8057 23.1147 14.2023C23.2151 14.5992 23.2508 15.014 23.2223 15.4469H19.2109C19.2323 15.9446 19.3576 16.3055 19.5872 16.529ZM21.3132 13.5855C21.1305 13.3835 20.8525 13.2824 20.4799 13.2824C20.236 13.2824 20.0336 13.324 19.8723 13.4069C19.7109 13.49 19.5818 13.5926 19.485 13.7153C19.3883 13.8381 19.3201 13.968 19.2808 14.1049C19.2413 14.242 19.2179 14.3647 19.2108 14.4729H21.695C21.6233 14.0832 21.4961 13.7875 21.3132 13.5855ZM18.95 10.677H22.0539V11.5431H18.95V10.677Z" fill="white"/>
<defs>
<filter id="filter0_d_1981_8891" x="0.67444" y="0.876514" width="32.9141" height="32.9138" filterUnits="userSpaceOnUse" color-interpolation-filters="sRGB">
<feFlood flood-opacity="0" result="BackgroundImageFix"/>
<feColorMatrix in="SourceAlpha" type="matrix" values="0 0 0 0 0 0 0 0 0 0 0 0 0 0 0 0 0 0 127 0" result="hardAlpha"/>
<feOffset dy="3.18523"/>
<feGaussianBlur stdDeviation="2.65436"/>
<feColorMatrix type="matrix" values="0 0 0 0 0.0901961 0 0 0 0 0.411765 0 0 0 0 1 0 0 0 0.25 0"/>
<feBlend mode="normal" in2="BackgroundImageFix" result="effect1_dropShadow_1981_8891"/>
<feBlend mode="normal" in="SourceGraphic" in2="effect1_dropShadow_1981_8891" result="shape"/>
</filter>
</defs>
</svg>
