<svg width="35" height="35" viewBox="0 1 35 35" fill="none" xmlns="http://www.w3.org/2000/svg">
<g filter="url(#filter0_d_1981_8897)">
<rect x="9.38989" y="5" width="22.2966" height="22.2966" rx="11.1483" fill="#FF458D"/>
</g>
<path d="M13.9629 16.0717C13.9629 14.8655 14.26 13.7525 14.8542 12.7325C15.4485 11.7126 16.2555 10.9055 17.2755 10.3113C18.2954 9.71703 19.4085 9.41992 20.6147 9.41992C21.8209 9.41992 22.9339 9.71703 23.9539 10.3113C24.9738 10.9055 25.7809 11.7126 26.3751 12.7325C26.9694 13.7525 27.2665 14.8655 27.2665 16.0717C27.2665 17.2779 26.9694 18.391 26.3751 19.4109C25.7809 20.4308 24.9738 21.2379 23.9539 21.8322C22.9339 22.4264 21.8209 22.7235 20.6147 22.7235C19.4085 22.7235 18.2954 22.4264 17.2755 21.8322C16.2555 21.2379 15.4485 20.4308 14.8542 19.4109C14.26 18.391 13.9629 17.2779 13.9629 16.0717ZM15.0671 16.0717C15.0671 17.4553 15.5327 18.6748 16.464 19.7302C16.8897 18.8965 17.5637 18.1027 18.4861 17.3488C19.4085 16.595 20.3087 16.1205 21.1867 15.9254C21.0537 15.615 20.9251 15.3356 20.8009 15.0872C19.2755 15.575 17.6258 15.8189 15.852 15.8189C15.5061 15.8189 15.2489 15.8145 15.0804 15.8056C15.0804 15.8411 15.0782 15.8855 15.0737 15.9387C15.0693 15.9919 15.0671 16.0362 15.0671 16.0717ZM15.24 14.7014C15.4352 14.7192 15.7234 14.728 16.1048 14.728C17.5859 14.728 18.9916 14.5285 20.322 14.1294C19.648 12.9321 18.9074 11.9343 18.1003 11.1361C17.3997 11.4908 16.7988 11.9831 16.2977 12.6128C15.7966 13.2425 15.444 13.9387 15.24 14.7014ZM17.2223 20.4486C18.2245 21.2291 19.3553 21.6193 20.6147 21.6193C21.271 21.6193 21.9229 21.4951 22.5703 21.2468C22.3929 19.7302 22.047 18.2624 21.5326 16.8433C20.7167 17.0207 19.8941 17.4686 19.0648 18.187C18.2356 18.9054 17.6214 19.6592 17.2223 20.4486ZM19.2577 10.7104C20.0382 11.5175 20.761 12.5241 21.4262 13.7303C22.6324 13.2247 23.5415 12.5817 24.1534 11.8013C23.1246 10.9498 21.945 10.5241 20.6147 10.5241C20.1624 10.5241 19.71 10.5862 19.2577 10.7104ZM21.9051 14.6748C22.0382 14.9586 22.1889 15.3178 22.3574 15.7524C23.0138 15.6903 23.7277 15.6593 24.4993 15.6593C25.0492 15.6593 25.5947 15.6726 26.1357 15.6992C26.0647 14.493 25.6301 13.4199 24.8319 12.4797C24.2554 13.34 23.2798 14.0717 21.9051 14.6748ZM22.69 16.6837C23.1424 17.9963 23.4483 19.3444 23.608 20.728C24.3086 20.2756 24.8807 19.6947 25.3241 18.9852C25.7676 18.2757 26.0337 17.5085 26.1224 16.6837C25.4749 16.6393 24.8851 16.6172 24.353 16.6172C23.8652 16.6172 23.3109 16.6393 22.69 16.6837Z" fill="white"/>
<defs>
<filter id="filter0_d_1981_8897" x="0.0890255" y="0.630928" width="40.8984" height="40.8981" filterUnits="userSpaceOnUse" color-interpolation-filters="sRGB">
<feFlood flood-opacity="0" result="BackgroundImageFix"/>
<feColorMatrix in="SourceAlpha" type="matrix" values="0 0 0 0 0 0 0 0 0 0 0 0 0 0 0 0 0 0 127 0" result="hardAlpha"/>
<feOffset dy="4.9318"/>
<feGaussianBlur stdDeviation="4.65043"/>
<feColorMatrix type="matrix" values="0 0 0 0 0.917647 0 0 0 0 0.298039 0 0 0 0 0.537255 0 0 0 0.22 0"/>
<feBlend mode="normal" in2="BackgroundImageFix" result="effect1_dropShadow_1981_8897"/>
<feBlend mode="normal" in="SourceGraphic" in2="effect1_dropShadow_1981_8897" result="shape"/>
</filter>
</defs>
</svg>
