<svg width="35" height="35" viewBox="0 -1 35 35" fill="none" xmlns="http://www.w3.org/2000/svg">
<g filter="url(#filter0_d_1981_8900)">
<rect x="9.09326" y="3" width="22.2966" height="22.2966" rx="11.1483" fill="url(#paint0_radial_1981_8900)"/>
</g>
<path d="M18.4815 14.1484C18.4815 13.1763 19.2693 12.3881 20.2415 12.3881C21.2136 12.3881 22.0019 13.1763 22.0019 14.1484C22.0019 15.1206 21.2136 15.9088 20.2415 15.9088C19.2693 15.9088 18.4815 15.1206 18.4815 14.1484ZM17.5299 14.1484C17.5299 15.6461 18.7438 16.8601 20.2415 16.8601C21.7391 16.8601 22.9531 15.6461 22.9531 14.1484C22.9531 12.6508 21.7391 11.4368 20.2415 11.4368C18.7438 11.4368 17.5299 12.6507 17.5299 14.1484H17.5299ZM22.4268 11.3293C22.4267 11.4547 22.4638 11.5772 22.5334 11.6814C22.603 11.7857 22.702 11.8669 22.8177 11.9149C22.9335 11.9629 23.0609 11.9755 23.1839 11.9511C23.3068 11.9267 23.4197 11.8664 23.5084 11.7778C23.597 11.6893 23.6574 11.5764 23.6819 11.4534C23.7064 11.3305 23.6939 11.2031 23.646 11.0873C23.5981 10.9715 23.5169 10.8725 23.4127 10.8028C23.3086 10.7331 23.1861 10.6959 23.0607 10.6959H23.0605C22.8925 10.696 22.7314 10.7627 22.6126 10.8815C22.4937 11.0002 22.4269 11.1613 22.4268 11.3293ZM18.108 18.4469C17.5932 18.4235 17.3133 18.3377 17.1274 18.2653C16.8808 18.1693 16.7049 18.055 16.52 17.8703C16.335 17.6856 16.2205 17.5098 16.125 17.2633C16.0525 17.0774 15.9667 16.7975 15.9433 16.2826C15.9177 15.726 15.9126 15.5588 15.9126 14.1485C15.9126 12.7383 15.9181 12.5716 15.9433 12.0145C15.9667 11.4996 16.0531 11.2202 16.125 11.0338C16.2209 10.7873 16.3353 10.6113 16.52 10.4264C16.7047 10.2414 16.8804 10.127 17.1274 10.0314C17.3133 9.95889 17.5932 9.87313 18.108 9.84973C18.6647 9.82413 18.8319 9.81902 20.2415 9.81902C21.6511 9.81902 21.8184 9.82447 22.3755 9.84982C22.8904 9.87326 23.1698 9.95966 23.3562 10.0315C23.6027 10.127 23.7787 10.2418 23.9636 10.4265C24.1486 10.6112 24.2626 10.7873 24.3586 11.0339C24.4311 11.2198 24.5169 11.4997 24.5403 12.0146C24.5659 12.5717 24.571 12.7384 24.571 14.1486C24.571 15.5588 24.5659 15.7256 24.5403 16.2827C24.5168 16.7975 24.4306 17.0774 24.3586 17.2633C24.2626 17.5099 24.1483 17.6858 23.9636 17.8703C23.7789 18.0549 23.6027 18.1694 23.3562 18.2653C23.1703 18.3378 22.8904 18.4236 22.3755 18.447C21.8189 18.4726 21.6517 18.4777 20.2415 18.4777C18.8312 18.4777 18.6645 18.4726 18.108 18.447V18.4469ZM18.0643 8.89966C17.5021 8.92526 17.118 9.0144 16.7825 9.14494C16.4353 9.27975 16.141 9.4606 15.8471 9.75404C15.5532 10.0475 15.3728 10.3419 15.238 10.6895C15.1074 11.0252 15.0183 11.4091 14.9927 11.9713C14.9667 12.5343 14.9607 12.7144 14.9607 14.1484C14.9607 15.5825 14.9667 15.7625 14.9927 16.3256C15.0183 16.8878 15.1074 17.2717 15.238 17.6074C15.3728 17.9546 15.5532 18.2495 15.8471 18.5429C16.1409 18.8362 16.4349 19.0168 16.7825 19.152C17.1186 19.2825 17.5021 19.3716 18.0643 19.3972C18.6277 19.4228 18.8074 19.4292 20.2415 19.4292C21.6756 19.4292 21.8556 19.4233 22.4186 19.3972C22.9808 19.3716 23.3647 19.2825 23.7004 19.152C24.0476 19.0168 24.342 18.8363 24.6359 18.5429C24.9298 18.2494 25.1098 17.9546 25.245 17.6074C25.3755 17.2717 25.4651 16.8878 25.4903 16.3256C25.5159 15.7621 25.5218 15.5825 25.5218 14.1484C25.5218 12.7144 25.5159 12.5343 25.4903 11.9713C25.4647 11.4091 25.3755 11.025 25.245 10.6895C25.1098 10.3423 24.9293 10.0479 24.6359 9.75404C24.3424 9.46014 24.0476 9.27975 23.7008 9.14494C23.3647 9.0144 22.9808 8.92483 22.419 8.89966C21.8559 8.87393 21.676 8.86768 20.2421 8.86768C18.8082 8.86768 18.6279 8.87363 18.0645 8.89966" fill="white"/>
<defs>
<filter id="filter0_d_1981_8900" x="0.851522" y="0.752253" width="38.7801" height="38.7799" filterUnits="userSpaceOnUse" color-interpolation-filters="sRGB">
<feFlood flood-opacity="0" result="BackgroundImageFix"/>
<feColorMatrix in="SourceAlpha" type="matrix" values="0 0 0 0 0 0 0 0 0 0 0 0 0 0 0 0 0 0 127 0" result="hardAlpha"/>
<feOffset dy="5.99399"/>
<feGaussianBlur stdDeviation="4.12087"/>
<feColorMatrix type="matrix" values="0 0 0 0 0.54902 0 0 0 0 0.227451 0 0 0 0 0.666667 0 0 0 0.15 0"/>
<feBlend mode="normal" in2="BackgroundImageFix" result="effect1_dropShadow_1981_8900"/>
<feBlend mode="normal" in="SourceGraphic" in2="effect1_dropShadow_1981_8900" result="shape"/>
</filter>
<radialGradient id="paint0_radial_1981_8900" cx="0" cy="0" r="1" gradientUnits="userSpaceOnUse" gradientTransform="translate(10.5363 24.8081) scale(28.3084)">
<stop offset="0.09" stop-color="#FF881B"/>
<stop offset="0.78" stop-color="#EE2584"/>
</radialGradient>
</defs>
</svg>
