<svg width="35" height="35" viewBox="0 -1 35 35" fill="none" xmlns="http://www.w3.org/2000/svg">
<g filter="url(#filter0_d_1981_8894)">
<rect x="5.68652" y="3" width="22.2966" height="22.2966" rx="11.1483" fill="#018AD2"/>
</g>
<path d="M12.0571 10.4772C12.0571 10.1564 12.1698 9.89183 12.3951 9.68334C12.6203 9.47485 12.9132 9.37061 13.2737 9.37061C13.6277 9.37061 13.9141 9.47324 14.133 9.67853C14.3583 9.89023 14.4709 10.1661 14.4709 10.5061C14.4709 10.814 14.3615 11.0706 14.1426 11.2759C13.9174 11.4876 13.6213 11.5934 13.2544 11.5934H13.2447C12.8907 11.5934 12.6043 11.4876 12.3854 11.2759C12.1666 11.0642 12.0571 10.798 12.0571 10.4772ZM12.1826 18.897V12.4691H14.3261V18.897H12.1826ZM15.5137 18.897H17.6571V15.3078C17.6571 15.0832 17.6829 14.91 17.7344 14.7882C17.8245 14.57 17.9613 14.3856 18.1447 14.2349C18.3282 14.0841 18.5583 14.0087 18.8351 14.0087C19.556 14.0087 19.9164 14.4931 19.9164 15.4617V18.897H22.0599V15.2116C22.0599 14.2621 21.8346 13.542 21.384 13.0513C20.9334 12.5605 20.338 12.3151 19.5978 12.3151C18.7675 12.3151 18.1206 12.6712 17.6571 13.3833V13.4025H17.6475L17.6571 13.3833V12.4691H15.5137C15.5265 12.6744 15.533 13.3127 15.533 14.384C15.533 15.4553 15.5265 16.9597 15.5137 18.897Z" fill="white"/>
<defs>
<filter id="filter0_d_1981_8894" x="0.37781" y="0.876514" width="32.9141" height="32.9138" filterUnits="userSpaceOnUse" color-interpolation-filters="sRGB">
<feFlood flood-opacity="0" result="BackgroundImageFix"/>
<feColorMatrix in="SourceAlpha" type="matrix" values="0 0 0 0 0 0 0 0 0 0 0 0 0 0 0 0 0 0 127 0" result="hardAlpha"/>
<feOffset dy="3.18523"/>
<feGaussianBlur stdDeviation="2.65436"/>
<feColorMatrix type="matrix" values="0 0 0 0 0.00392157 0 0 0 0 0.541176 0 0 0 0 0.823529 0 0 0 0.25 0"/>
<feBlend mode="normal" in2="BackgroundImageFix" result="effect1_dropShadow_1981_8894"/>
<feBlend mode="normal" in="SourceGraphic" in2="effect1_dropShadow_1981_8894" result="shape"/>
</filter>
</defs>
</svg>
